<svg width="26" height="26" viewBox="0 0 26 26" fill="none" xmlns="http://www.w3.org/2000/svg">
<path d="M22.3513 24.4763H19.4927C18.9444 22.7347 17.2443 17.3344 16.6745 15.5244V9.64712C16.6745 9.22645 16.3334 8.8854 15.9127 8.8854H13.6534V7.65193C14.8415 7.31855 15.7155 6.22645 15.7155 4.93336C15.7155 3.3763 14.4487 2.10962 12.8917 2.10962C11.3347 2.10962 10.068 3.37636 10.068 4.93336C10.068 6.22645 10.942 7.31855 12.13 7.65193V8.8854H9.91843C9.49776 8.8854 9.15671 9.22645 9.15671 9.64712V15.5156L6.11182 24.4763H3.64893C3.22825 24.4763 2.88721 24.8173 2.88721 25.238C2.88721 25.6587 3.22825 25.9997 3.64893 25.9997H22.3513C22.7719 25.9997 23.113 25.6587 23.113 25.238C23.113 24.8173 22.7719 24.4763 22.3513 24.4763ZM11.5914 4.93336C11.5914 4.21633 12.1747 3.63305 12.8917 3.63305C13.6087 3.63305 14.192 4.21638 14.192 4.93336C14.192 5.65034 13.6087 6.23371 12.8917 6.23371C12.1747 6.23371 11.5914 5.65039 11.5914 4.93336ZM15.151 14.8797H10.6801V13.3862H15.151V14.8797ZM14.703 16.4032L12.8514 20.2663L11.1001 16.4032H14.703ZM10.0199 17.7102L11.6505 21.3071H8.79769L10.0199 17.7102ZM15.7656 17.7108L16.8978 21.3071H14.042L15.7656 17.7108ZM15.151 10.4088V11.8629H10.6801V10.4088H15.151ZM8.28002 22.8306H17.3774L17.8955 24.4763H7.72077L8.28002 22.8306Z" fill="#FFC321"/>
<path d="M17.6607 7.38742C17.8094 7.53616 18.0044 7.61056 18.1993 7.61056C18.3941 7.61056 18.5892 7.53621 18.7378 7.38742C20.173 5.95229 20.173 3.61717 18.7378 2.18209C18.4404 1.88462 17.9581 1.88462 17.6606 2.18209C17.3631 2.47957 17.3631 2.96184 17.6606 3.25931C18.5017 4.10045 18.5017 5.46911 17.6606 6.31025C17.3631 6.60768 17.3631 7.08995 17.6607 7.38742V7.38742Z" fill="#FFC321"/>
<path d="M19.6201 8.26924C19.3227 8.56672 19.3227 9.04899 19.6201 9.34647C19.7689 9.4952 19.9638 9.5696 20.1587 9.5696C20.3536 9.5696 20.5486 9.49526 20.6973 9.34647C23.2126 6.83112 23.2126 2.7384 20.6973 0.223107C20.3999 -0.0743691 19.9176 -0.0743691 19.6201 0.223107C19.3226 0.520584 19.3226 1.00285 19.6201 1.30033C21.5414 3.22164 21.5414 6.34788 19.6201 8.26924V8.26924Z" fill="#FFC321"/>
<path d="M7.19598 7.38748C7.34472 7.53622 7.53967 7.61061 7.73457 7.61061C7.92947 7.61061 8.12447 7.53627 8.27315 7.38748C8.57063 7.09 8.57063 6.60773 8.27315 6.31026C7.43206 5.46912 7.43206 4.10046 8.27315 3.25932C8.57063 2.96184 8.57063 2.47957 8.27315 2.18209C7.97573 1.88462 7.49341 1.88462 7.19593 2.18209C5.76085 3.61727 5.76085 5.9524 7.19598 7.38748Z" fill="#FFC321"/>
<path d="M5.77521 9.5696C5.97011 9.5696 6.16511 9.4952 6.3138 9.34647C6.61127 9.04904 6.61127 8.56672 6.3138 8.26924C4.39249 6.34788 4.39249 3.22164 6.3138 1.30033C6.61127 1.00285 6.61127 0.520584 6.3138 0.223107C6.01637 -0.0743691 5.53405 -0.0743691 5.23657 0.223107C2.72127 2.7384 2.72127 6.83112 5.23657 9.34647C5.38531 9.4952 5.58026 9.5696 5.77521 9.5696V9.5696Z" fill="#FFC321"/>
</svg>
