<svg width="26" height="26" viewBox="0 0 26 26" fill="none" xmlns="http://www.w3.org/2000/svg">
<g clip-path="url(#clip0_91_1305)">
<path d="M25.9773 20.8895L23.946 12.7645C23.8613 12.4254 23.5566 12.1875 23.207 12.1875H2.79299C2.44346 12.1875 2.13877 12.4254 2.05402 12.7645L0.0227693 20.8895C-0.0341564 21.117 0.0169803 21.3581 0.161351 21.543C0.305722 21.7279 0.527179 21.8359 0.761738 21.8359H9.9989L9.35484 24.4766H7.92189C7.50122 24.4766 7.16018 24.8176 7.16018 25.2383C7.16018 25.659 7.50122 26 7.92189 26H18.0781C18.4988 26 18.8399 25.659 18.8399 25.2383C18.8399 24.8176 18.4988 24.4766 18.0781 24.4766H16.6451L16.0011 21.8359H25.2383C25.4729 21.8359 25.6943 21.7279 25.8387 21.543C25.9831 21.3581 26.0342 21.1171 25.9773 20.8895V20.8895ZM13.7617 13.7109H17.4311L17.7485 16.25H13.7617V13.7109ZM8.56895 13.7109H12.2383V16.25H8.25152L8.56895 13.7109ZM6.20848 20.3125H1.73735L2.37211 17.7734H6.52587L6.20848 20.3125ZM6.7163 16.25H2.75297L3.38774 13.7109H7.03368L6.7163 16.25ZM7.74375 20.3125L8.06114 17.7734H12.2383V20.3125H7.74375ZM10.923 24.4766L11.5671 21.8359H14.433L15.0771 24.4766H10.923ZM13.7617 20.3125V17.7734H17.939L18.2563 20.3125H13.7617ZM18.9664 13.7109H22.6123L23.2471 16.25H19.2837L18.9664 13.7109ZM19.7916 20.3125L19.4742 17.7734H23.6279L24.2627 20.3125H19.7916Z" fill="#FFC321"/>
<path d="M5.38281 9.14062H7.72515C7.77568 9.4832 7.85911 9.82292 7.97718 10.1565C8.08488 10.4607 8.37256 10.6641 8.69527 10.6641H17.3047C17.6274 10.6641 17.9151 10.4607 18.0228 10.1565C18.1409 9.82292 18.2243 9.48314 18.2749 9.14062H20.6172C21.0379 9.14062 21.3789 8.79958 21.3789 8.37891C21.3789 7.95823 21.0379 7.61719 20.6172 7.61719H18.2774C18.1478 6.71516 17.7919 5.88524 17.2688 5.18736L18.9248 3.53138C19.2223 3.23395 19.2223 2.75163 18.9248 2.45416C18.6274 2.15673 18.1451 2.15668 17.8476 2.45416L16.1916 4.11013C15.4937 3.58704 14.6638 3.23111 13.7617 3.10152V0.761719C13.7617 0.341047 13.4207 0 13 0C12.5793 0 12.2383 0.341047 12.2383 0.761719V3.10152C11.3363 3.23111 10.5063 3.58698 9.80845 4.11013L8.15247 2.45416C7.85505 2.15668 7.37273 2.15668 7.07525 2.45416C6.77777 2.75163 6.77777 3.2339 7.07525 3.53138L8.73128 5.18736C8.20818 5.88524 7.85225 6.71516 7.72266 7.61719H5.38281C4.96214 7.61719 4.62109 7.95823 4.62109 8.37891C4.62109 8.79958 4.96214 9.14062 5.38281 9.14062V9.14062ZM13 4.57031C15.1001 4.57031 16.8086 6.27885 16.8086 8.37891C16.8086 8.63337 16.782 8.88809 16.7292 9.14062H9.27083C9.21807 8.88809 9.19146 8.63337 9.19146 8.37891C9.19141 6.27885 10.8999 4.57031 13 4.57031Z" fill="#FFC321"/>
</g>
<defs>
<clipPath id="clip0_91_1305">
<rect width="26" height="26" fill="white"/>
</clipPath>
</defs>
</svg>
