<svg width="26" height="26" viewBox="0 0 26 26" fill="none" xmlns="http://www.w3.org/2000/svg">
<path d="M25.2864 7.54201C24.9609 7.21681 24.55 6.99043 24.1012 6.88906C23.6524 6.78769 23.1841 6.81548 22.7505 6.96922V4.875C22.7501 4.55188 22.6216 4.24209 22.3931 4.0136C22.1647 3.78512 21.8549 3.6566 21.5317 3.65625H19.5005V1.625C19.5001 1.30188 19.3716 0.992087 19.1431 0.763603C18.9147 0.53512 18.6049 0.406603 18.2817 0.40625H1.21924C0.896114 0.406603 0.586325 0.53512 0.357841 0.763603C0.129358 0.992087 0.000840986 1.30188 0.000488281 1.625V21.125C0.000840986 21.4481 0.129358 21.7579 0.357841 21.9864C0.586325 22.2149 0.896114 22.3434 1.21924 22.3438H3.25049V24.375C3.25084 24.6981 3.37936 25.0079 3.60784 25.2364C3.83633 25.4649 4.14611 25.5934 4.46924 25.5938H21.5317C21.8549 25.5934 22.1647 25.4649 22.3931 25.2364C22.6216 25.0079 22.7501 24.6981 22.7505 24.375V13.525L25.2864 10.9892C25.7429 10.5317 25.9993 9.91187 25.9993 9.2656C25.9993 8.61932 25.7429 7.99945 25.2864 7.54201ZM1.62549 20.7188V2.03125H17.8755V3.65625H4.46924C4.14611 3.6566 3.83633 3.78512 3.60784 4.0136C3.37936 4.24209 3.25084 4.55188 3.25049 4.875V20.7188H1.62549ZM21.1255 20.7188H10.7447C10.5292 20.7188 10.3225 20.8044 10.1702 20.9567C10.0178 21.1091 9.93219 21.3158 9.93219 21.5312C9.93219 21.7467 10.0178 21.9534 10.1702 22.1058C10.3225 22.2581 10.5292 22.3438 10.7447 22.3438H21.1255V23.9688H4.87549V5.28125H21.1255V8.25612L14.658 14.7236C14.5275 14.854 14.4453 15.025 14.4251 15.2084L14.1379 17.7939C14.1255 17.9147 14.1402 18.0368 14.1809 18.1513C14.2215 18.2658 14.2872 18.3698 14.3731 18.4557C14.459 18.5416 14.563 18.6073 14.6775 18.648C14.7919 18.6888 14.9141 18.7034 15.0349 18.6911L17.62 18.4036C17.8034 18.3832 17.9743 18.301 18.1048 18.1705L21.1255 15.1499L21.1255 20.7188ZM24.1375 9.84026L17.1574 16.8201L15.8649 16.9637L16.0085 15.671L22.9885 8.69094C23.1433 8.5433 23.3491 8.46093 23.563 8.46093C23.7769 8.46093 23.9826 8.5433 24.1375 8.69094C24.2895 8.84353 24.3749 9.05017 24.3749 9.2656C24.3749 9.48102 24.2895 9.68766 24.1375 9.84026Z" fill="#FFC321"/>
<path d="M11.0995 8.45217C10.7679 8.26625 10.4522 8.05321 10.1557 7.81522C10.2847 7.65151 10.3458 7.44449 10.3265 7.23698C10.3071 7.02947 10.2087 6.83733 10.0517 6.7003C9.89468 6.56327 9.691 6.49183 9.48278 6.50074C9.27455 6.50966 9.07772 6.59826 8.93298 6.74822C8.76514 6.90423 8.63622 7.09742 8.55657 7.31229C8.47692 7.52715 8.44877 7.7577 8.47436 7.98541C8.57047 9.19689 10.5548 9.82359 11.2911 10.5665C11.5593 11.3852 11.2769 11.6792 9.5138 12.4173C8.36051 12.9003 7.05329 13.4476 6.62165 14.7153C6.49476 15.1236 6.46506 15.5559 6.5349 15.9778C6.60475 16.3996 6.77221 16.7992 7.02393 17.1449C7.97352 18.4541 9.95277 19.0165 11.3737 19.0938C11.5846 19.0936 11.7872 19.0114 11.9387 18.8645C12.0901 18.7176 12.1784 18.5175 12.185 18.3067C12.1916 18.0958 12.1159 17.8907 11.974 17.7346C11.8321 17.5785 11.635 17.4838 11.4244 17.4704C10.2981 17.399 8.87784 16.9378 8.34226 16.1945C7.56949 14.9897 8.92855 14.4077 10.1414 13.9163C11.5272 13.3361 13.6211 12.4593 12.8312 10.0486C12.5896 9.34877 11.8323 8.89293 11.0995 8.45217Z" fill="#FFC321"/>
<path d="M18.688 8.53125C19.1367 8.53125 19.5005 8.16748 19.5005 7.71875C19.5005 7.27002 19.1367 6.90625 18.688 6.90625C18.2393 6.90625 17.8755 7.27002 17.8755 7.71875C17.8755 8.16748 18.2393 8.53125 18.688 8.53125Z" fill="#FFC321"/>
</svg>
