<svg width="26" height="26" viewBox="0 0 26 26" fill="none" xmlns="http://www.w3.org/2000/svg">
<path d="M22.75 24.375H3.25C3.03451 24.375 2.82785 24.2894 2.67548 24.137C2.5231 23.9847 2.4375 23.778 2.4375 23.5625V8.9375C2.4375 8.72201 2.5231 8.51535 2.67548 8.36298C2.82785 8.2106 3.03451 8.125 3.25 8.125C3.46549 8.125 3.67215 8.2106 3.82452 8.36298C3.9769 8.51535 4.0625 8.72201 4.0625 8.9375V22.75H21.9375V8.9375C21.9375 8.72201 22.0231 8.51535 22.1755 8.36298C22.3278 8.2106 22.5345 8.125 22.75 8.125C22.9655 8.125 23.1722 8.2106 23.3245 8.36298C23.4769 8.51535 23.5625 8.72201 23.5625 8.9375V23.5625C23.5625 23.778 23.4769 23.9847 23.3245 24.137C23.1722 24.2894 22.9655 24.375 22.75 24.375Z" fill="#FFC321"/>
<path d="M24.3748 10.5625C24.2193 10.5625 24.0671 10.5176 23.9365 10.4333L12.9998 3.40312L2.064 10.4333C1.97429 10.494 1.87334 10.5362 1.76708 10.5574C1.66082 10.5785 1.5514 10.5782 1.44527 10.5565C1.33913 10.5347 1.23841 10.492 1.14905 10.4307C1.05968 10.3695 0.983465 10.291 0.924888 10.1998C0.866311 10.1087 0.826555 10.0067 0.807957 9.9C0.78936 9.79326 0.792298 9.68388 0.816598 9.5783C0.840898 9.47272 0.88607 9.37306 0.949455 9.28519C1.01284 9.19732 1.09316 9.12302 1.18569 9.06665L12.5607 1.75415C12.6917 1.66999 12.8441 1.62524 12.9998 1.62524C13.1556 1.62524 13.308 1.66999 13.439 1.75415L24.814 9.06665C24.9616 9.16159 25.0745 9.30176 25.1357 9.46619C25.197 9.63062 25.2034 9.81047 25.154 9.97885C25.1046 10.1472 25.002 10.2951 24.8615 10.4003C24.7211 10.5055 24.5503 10.5624 24.3748 10.5625V10.5625Z" fill="#FFC321"/>
<path d="M19.9062 24.375H6.09375C5.87826 24.375 5.6716 24.2894 5.51923 24.137C5.36685 23.9847 5.28125 23.778 5.28125 23.5625V13C5.28125 12.7845 5.36685 12.5778 5.51923 12.4255C5.6716 12.2731 5.87826 12.1875 6.09375 12.1875H19.9062C20.1217 12.1875 20.3284 12.2731 20.4808 12.4255C20.6331 12.5778 20.7188 12.7845 20.7188 13V23.5625C20.7188 23.778 20.6331 23.9847 20.4808 24.137C20.3284 24.2894 20.1217 24.375 19.9062 24.375ZM6.90625 22.75H19.0938V13.8125H6.90625V22.75Z" fill="#FFC321"/>
<path d="M17.4688 16.25H8.53125C8.31576 16.25 8.1091 16.1644 7.95673 16.012C7.80435 15.8597 7.71875 15.653 7.71875 15.4375C7.71875 15.222 7.80435 15.0153 7.95673 14.863C8.1091 14.7106 8.31576 14.625 8.53125 14.625H17.4688C17.6842 14.625 17.8909 14.7106 18.0433 14.863C18.1956 15.0153 18.2812 15.222 18.2812 15.4375C18.2812 15.653 18.1956 15.8597 18.0433 16.012C17.8909 16.1644 17.6842 16.25 17.4688 16.25Z" fill="#FFC321"/>
<path d="M17.4688 19.0938H8.53125C8.31576 19.0938 8.1091 19.0081 7.95673 18.8558C7.80435 18.7034 7.71875 18.4967 7.71875 18.2812C7.71875 18.0658 7.80435 17.8591 7.95673 17.7067C8.1091 17.5544 8.31576 17.4688 8.53125 17.4688H17.4688C17.6842 17.4688 17.8909 17.5544 18.0433 17.7067C18.1956 17.8591 18.2812 18.0658 18.2812 18.2812C18.2812 18.4967 18.1956 18.7034 18.0433 18.8558C17.8909 19.0081 17.6842 19.0938 17.4688 19.0938Z" fill="#FFC321"/>
<path d="M17.4688 21.9375H8.53125C8.31576 21.9375 8.1091 21.8519 7.95673 21.6995C7.80435 21.5472 7.71875 21.3405 7.71875 21.125C7.71875 20.9095 7.80435 20.7028 7.95673 20.5505C8.1091 20.3981 8.31576 20.3125 8.53125 20.3125H17.4688C17.6842 20.3125 17.8909 20.3981 18.0433 20.5505C18.1956 20.7028 18.2812 20.9095 18.2812 21.125C18.2812 21.3405 18.1956 21.5472 18.0433 21.6995C17.8909 21.8519 17.6842 21.9375 17.4688 21.9375Z" fill="#FFC321"/>
</svg>
